<?xml version="1.0" encoding="UTF-8"?>
<svg version="1.1" width="379" height="502" viewBox="0 0 379 502"
  xmlns="http://www.w3.org/2000/svg">
  <g transform="matrix(1.3333333,0,0,-1.3333333,0,502.556)" style="fill:none;stroke:none;stroke-width:1px;stroke-linecap:butt;stroke-linejoin:miter;">
    <g transform="translate(222.847,149.521)">
      <path d="M 0,0 34,36.925" style="stroke:#231f20;"/>
    </g>
    <g transform="translate(193.0357,244.2554)">
      <path d="M 0,0 -40.189,22.813 23.967,-4.053 Z" style="stroke:#231f20;"/>
    </g>
    <g transform="translate(102.8796,241.1661)">
      <path d="M 0,0 49.967,25.903" style="stroke:#231f20;"/>
    </g>
    <g transform="translate(102.9883,217.8851)">
      <path d="m 0,0 75.047,-100.456 15,19.577" style="stroke:#231f20;"/>
    </g>
    <g transform="translate(222.847,149.3302)">
      <path d="M 0,0 -95.144,-16.826 V 97.347 L 34,37.116 -5.844,90.872" style="stroke:#231f20;"/>
    </g>
    <g transform="translate(87.0729,217.8851)">
      <path d="M 0,0 40.63,28.792" style="stroke:#231f20;"/>
    </g>
    <g transform="translate(193.1026,137.0066)">
      <path d="M 0,0 V 107.438 L -65.24,80.495 -90.223,104.16 V -11.689" style="stroke:#231f20;"/>
    </g>
    <g transform="translate(127.7033,132.5047)">
      <path d="M 0,0 16,-15.238" style="stroke:#231f20;"/>
    </g>
    <g transform="translate(217.0025,240.2025)">
      <path d="M 0,0 -114.123,-114.885" style="stroke:#231f20;"/>
    </g>
    <g transform="translate(222.5826,149.229)">
      <path d="M 0,0 -44.433,-31.712" style="stroke:#231f20;"/>
    </g>
    <g transform="translate(143.7468,117.0124)">
      <path d="M 0,0 101.185,1.329" style="stroke:#231f20;"/>
    </g>
    <g transform="translate(102.8796,125.3174)">
      <path d="M 0,0 40.867,-8.305" style="stroke:#231f20;"/>
    </g>
    <g transform="translate(87.0729,217.8851)">
      <path d="M 0,0 15.807,-92.568" style="stroke:#231f20;"/>
    </g>
    <g transform="translate(89.8838,215.6013)">
      <path d="M 0,0 V 0" style="stroke:#231f20;"/>
    </g>
    <g transform="translate(102.8796,241.1661)">
      <path d="M 0,0 -12.996,-18.585" style="stroke:#231f20;"/>
    </g>
    <g transform="translate(156.05,251.2277)">
      <path d="M 0,0 -28.378,-4.347" style="stroke:#231f20;"/>
    </g>
    <g transform="translate(152.8466,267.0688)">
      <path d="M 0,0 3.203,-15.841" style="stroke:#231f20;"/>
    </g>
    <g transform="translate(193.0357,244.2554)">
      <path d="M 0,0 -36.986,6.972" style="stroke:#231f20;"/>
    </g>
    <g transform="translate(89.8838,215.6013)">
      <path d="M 0,0 -79.345,32.778 12.996,25.565" style="stroke:#231f20;"/>
    </g>
    <g transform="translate(79.7324,90.315)">
      <path d="M 0,0 22.944,34.39" style="stroke:#231f20;"/>
    </g>
    <g transform="translate(211.2042,85.3459)">
      <path d="M 0,0 -33.169,32.083 -45.256,-2.749 -67.615,31.561" style="stroke:#231f20;"/>
    </g>
    <g transform="translate(82.5506,267.541)">
      <path d="m 0,0 70.439,-0.223 102.208,58.767 -38.195,-85.883 38.195,85.883 -43.993,-240.739" style="stroke:#231f20;"/>
    </g>
    <g transform="translate(152.99,267.3179)">
      <path d="M 0,0 -16.774,41.944 -50.11,-26.152 -70.439,0.223" style="stroke:#231f20;"/>
    </g>
    <g transform="translate(193.0357,244.2554)">
      <path d="M 0,0 62.162,81.829" style="stroke:#231f20;"/>
    </g>
    <g transform="translate(256.8471,186.4463)">
      <path d="M 0,0 16.424,-44.682 -78.811,-69.017" style="stroke:#231f20;"/>
    </g>
    <g transform="translate(223.4663,148.9709)">
      <path d="M 0,0 49.805,-7.207 45.403,-64.48 Z" style="stroke:#231f20;"/>
    </g>
    <g transform="translate(211.2042,85.3459)">
      <path d="M 0,0 -91.048,-36.181" style="stroke:#231f20;"/>
    </g>
    <g transform="translate(51.3188,159.9407)">
      <path d="m 0,0 115.629,-77.344 -7.219,-73.988 -79.996,81.706" style="stroke:#231f20;"/>
    </g>
    <g transform="translate(120.1561,49.1652)">
      <path d="M 0,0 45.792,33.431" style="stroke:#231f20;"/>
    </g>
    <g transform="translate(102.8796,125.3174)">
      <path d="M 0,0 56.849,-116.708" style="stroke:#231f20;"/>
    </g>
    <g transform="translate(143.7033,117.2669)">
      <path d="M 0,0 16.026,-108.658" style="stroke:#231f20;"/>
    </g>
    <g transform="translate(79.7324,90.315)">
      <path d="M 0,0 47.971,42.19" style="stroke:#231f20;"/>
    </g>
    <g transform="translate(89.8838,222.5815)">
      <path d="M 0,0 -68.257,-114.041" style="stroke:#231f20;"/>
    </g>
    <g transform="translate(69.0292,148.0942)">
      <path d="M 0,0 -47.402,-39.554" style="stroke:#231f20;"/>
    </g>
    <g transform="translate(10.5386,248.3795)">
      <path d="M 0,0 72.012,19.161" style="stroke:#231f20;"/>
    </g>
    <g transform="translate(235.1428,218.2359)">
      <path d="M 0,0 21.9,25.346" style="stroke:#231f20;"/>
    </g>
    <g transform="translate(136.2161,309.2622)">
      <path d="M 0,0 120.827,-65.681" style="stroke:#231f20;"/>
    </g>
    <g transform="translate(217.0025,240.2025)">
      <path d="M 0,0 40.041,3.379" style="stroke:#231f20;"/>
    </g>
    <g transform="translate(111.5419,368.2813)">
      <path d="M 0,0 69.877,-38.057" style="stroke:#231f20;"/>
    </g>
    <g transform="translate(182.7018,283.3385)">
      <path d="M 0,0 -1.282,46.886" style="stroke:#231f20;"/>
    </g>
    <g transform="translate(136.2161,309.2622)">
      <path d="M 0,0 45.203,20.962" style="stroke:#231f20;"/>
    </g>
    <g transform="translate(111.5419,368.2813)">
      <path d="M 0,0 24.674,-59.019" style="stroke:#231f20;"/>
    </g>
    <g transform="translate(102.8796,241.1661)">
      <path d="M 0,0 8.662,127.115" style="stroke:#231f20;"/>
    </g>
    <path d="m 218.254,238.951 h -2.504 v 2.504 h 2.504 z" style="fill:#231f20;"/>
    <path d="m 128.68,245.695 h -2.504 v 2.504 h 2.504 z" style="fill:#231f20;"/>
    <path d="m 157.302,249.976 h -2.504 v 2.504 h 2.504 z" style="fill:#231f20;"/>
    <path d="m 154.526,265.389 h -3.359 v 3.359 h 3.359 z" style="fill:#231f20;"/>
    <path d="m 104.24,239.812 h -2.504 v 2.504 h 2.504 z" style="fill:#231f20;"/>
    <path d="m 104.131,124.065 h -2.504 v 2.504 h 2.504 z" style="fill:#231f20;"/>
    <path d="m 144.841,115.655 h -2.504 v 2.504 h 2.504 z" style="fill:#231f20;"/>
    <path d="m 179.355,116.25 h -2.504 v 2.504 h 2.504 z" style="fill:#231f20;"/>
    <path d="m 224.881,147.487 h -4.067 v 4.067 h 4.067 z" style="fill:#231f20;"/>
    <path d="m 194.931,134.973 h -4.067 v 4.067 h 4.067 z" style="fill:#231f20;"/>
    <path d="m 129.652,130.413 h -4.067 v 4.067 h 4.067 z" style="fill:#231f20;"/>
    <path d="m 195.136,242.114 h -4.067 v 4.067 h 4.067 z" style="fill:#231f20;"/>
    <path d="m 235.143,205.757 h -4.067 v 4.067 h 4.067 z" style="fill:#231f20;"/>
    <path d="M 82.331,87.705 H 77.31 v 5.021 h 5.021 z" style="fill:#231f20;"/>
    <path d="m 138.345,307.134 h -4.257 v 4.257 h 4.257 z" style="fill:#231f20;"/>
    <path d="m 256.973,323.858 h -4.067 v 4.067 h 4.067 z" style="fill:#231f20;"/>
    <path d="m 275.305,139.731 h -4.067 v 4.067 h 4.067 z" style="fill:#231f20;"/>
    <path d="M 12.572,246.346 H 8.505 v 4.067 h 4.067 z" style="fill:#231f20;"/>
    <g transform="translate(69.0292,148.0942)">
      <path d="M 0,0 18.044,69.791" style="stroke:#231f20;"/>
    </g>
    <g transform="translate(156.05,251.2277)">
      <path d="M 0,0 66.797,-101.898" style="stroke:#231f20;"/>
    </g>
    <g transform="translate(10.5386,248.3795)">
      <path d="M 0,0 117.165,-115.875" style="stroke:#231f20;"/>
    </g>
    <g transform="translate(89.8838,215.6013)">
      <path d="M 0,0 183.388,-73.837" style="stroke:#231f20;"/>
    </g>
    <g transform="translate(127.6183,159.2615)">
      <path d="M 0,0 -105.991,-50.721" style="stroke:#231f20;"/>
    </g>
    <g transform="translate(51.3188,159.9407)">
      <path d="M 0,0 83.066,-100.275" style="stroke:#231f20;"/>
    </g>
    <g transform="translate(79.7324,90.315)">
      <path d="M 0,0 113.303,46.692" style="stroke:#231f20;"/>
    </g>
    <g transform="translate(46.872,157.0226)">
      <path d="M 0,0 V 64.909 H 42.876 V 57.595 H 8.228 V 35.928 H 37.391 V 29.072 H 8.228 V 0 Z" style="fill:#231f20;"/>
    </g>
    <g transform="translate(47.372,157.5226)">
      <path d="m 0,0 h 7.228 v 29.072 h 29.163 v 5.856 H 7.228 v 22.667 h 34.648 v 6.314 H 0 Z M 8.228,-1 H -1 V 64.909 H 42.876 V 56.595 H 8.228 V 35.928 H 37.391 V 28.072 H 8.228 Z" style="fill:#231f20;"/>
    </g>
    <path d="m 99.046,221.931 h 8.228 v -64.909 h -8.228 z" style="fill:#231f20;"/>
    <path d="m 99.546,157.523 h 7.228 v 63.909 h -7.228 z m 8.228,-1 h -9.228 v 65.909 h 9.228 z" style="fill:#231f20;"/>
    <g transform="translate(168.6718,189.5681)">
      <path d="m 0,0 c 0,4.876 -0.9,9.202 -2.697,12.982 -1.798,3.779 -4.404,6.734 -7.817,8.868 -3.413,2.132 -7.588,3.2 -12.524,3.2 H -37.3 v -50.283 h 14.262 c 4.996,0 9.202,1.111 12.616,3.338 3.413,2.225 6.003,5.24 7.771,9.051 C -0.884,-9.036 0,-4.754 0,0 m -45.528,-32.545 v 64.908 h 22.49 c 6.948,0 12.753,-1.448 17.415,-4.342 C -0.96,25.126 2.528,21.225 4.845,16.319 7.161,11.412 8.319,5.973 8.319,0 c 0,-6.583 -1.279,-12.311 -3.84,-17.188 -2.559,-4.875 -6.186,-8.654 -10.878,-11.336 -4.694,-2.682 -10.24,-4.021 -16.639,-4.021 z" style="fill:#231f20;"/>
    </g>
    <g transform="translate(131.872,164.8351)">
      <path d="m 0,0 h 13.762 c 4.877,0 9.03,1.096 12.343,3.257 3.317,2.162 5.871,5.138 7.59,8.843 1.728,3.724 2.605,7.975 2.605,12.633 0,4.775 -0.891,9.071 -2.649,12.767 -1.747,3.672 -4.315,6.585 -7.63,8.659 -3.318,2.072 -7.442,3.124 -12.259,3.124 H 0 Z M 13.762,-1 H -1 v 51.283 h 14.762 c 5.007,0 9.31,-1.102 12.789,-3.277 3.48,-2.175 6.173,-5.229 8.004,-9.076 C 36.376,34.098 37.3,29.658 37.3,24.733 37.3,19.929 36.392,15.536 34.602,11.679 32.803,7.801 30.128,4.686 26.651,2.419 23.172,0.15 18.836,-1 13.762,-1 m -21.99,-6.312 h 21.99 c 6.281,0 11.796,1.331 16.39,3.956 4.587,2.621 8.182,6.367 10.684,11.133 2.511,4.782 3.783,10.487 3.783,16.956 0,5.87 -1.153,11.288 -3.426,16.106 -2.265,4.795 -5.724,8.661 -10.279,11.491 -4.562,2.831 -10.332,4.266 -17.152,4.266 h -21.99 z m 21.99,-1.001 h -22.99 v 65.909 h 22.99 c 7.009,0 12.957,-1.486 17.679,-4.417 4.722,-2.932 8.308,-6.941 10.656,-11.913 2.337,-4.952 3.522,-10.515 3.522,-16.533 C 45.619,18.1 44.308,12.239 41.722,7.312 39.129,2.374 35.403,-1.508 30.648,-4.226 25.901,-6.937 20.22,-8.313 13.762,-8.313" style="fill:#231f20;"/>
    </g>
    <path d="m 189.369,221.931 h 8.228 v -64.909 h -8.228 z" style="fill:#231f20;"/>
    <path d="m 189.869,157.523 h 7.228 v 63.909 h -7.228 z m 8.228,-1 h -9.228 v 65.909 h 9.228 z" style="fill:#231f20;"/>
    <g transform="translate(259.4701,214.6179)">
      <path d="m 0,0 h -22.398 v -57.595 h -8.228 V 0 H -53.024 V 7.313 H 0 Z" style="fill:#231f20;"/>
    </g>
    <g transform="translate(229.3441,157.5226)">
      <path d="m 0,0 h 7.228 v 57.595 h 22.398 v 6.314 H -22.398 V 57.595 H 0 Z M 8.228,-1 H -1 v 57.595 h -22.398 v 8.314 H 30.626 V 56.595 H 8.228 Z" style="fill:#231f20;"/>
    </g>
  </g>
</svg>